<svg xmlns="http://www.w3.org/2000/svg" version="1.1" xmlns:xlink="http://www.w3.org/1999/xlink" xmlns:svgjs="http://svgjs.com/svgjs" width="1440" height="560" preserveAspectRatio="none" viewBox="0 0 1440 560"><g mask="url(&quot;#SvgjsMask1000&quot;)" fill="none"><rect width="1440" height="560" x="0" y="0" fill="#0e2a47"></rect><path d="M324.34 481.09a30.7 30.7 0 1 0 47.4-39.02z" stroke="#d3b714"></path><path d="M1112.36 522.4 a7.67 7.67 0 1 0 15.34 0 a7.67 7.67 0 1 0 -15.34 0z" fill="#d3b714"></path><path d="M1371.08 202.8 a30.11 30.11 0 1 0 60.22 0 a30.11 30.11 0 1 0 -60.22 0z" stroke="#037b0b"></path><path d="M72.09 545.79L117.26 545.79L117.26 590.96L72.09 590.96z" stroke="#037b0b"></path><path d="M1180.19 324.36a4.74 4.74 0 1 0-8.38-4.44z" stroke="#e73635"></path><path d="M24.21 186.93L64.92 186.93L64.92 239.68L24.21 239.68z" fill="#d3b714"></path><path d="M202.61 457.53L230.11 457.53L230.11 511.02L202.61 511.02z" stroke="#d3b714"></path><path d="M167 327.47L215.82 327.47L215.82 368.35L167 368.35z" stroke="#037b0b"></path><path d="M178.28 263.51a16.87 16.87 0 1 0-1.49-33.71z" stroke="#d3b714"></path><path d="M436.69 300.52 a51.88 51.88 0 1 0 103.76 0 a51.88 51.88 0 1 0 -103.76 0z" fill="#e73635"></path><path d="M576.95 311.11a53.26 53.26 0 1 0-105.93-11.14z" stroke="#037b0b"></path><path d="M1184.06 381.34a55.28 55.28 0 1 0-98.47 50.29z" fill="#e73635"></path><path d="M857.42 554.6 a45.7 45.7 0 1 0 91.4 0 a45.7 45.7 0 1 0 -91.4 0z" fill="#037b0b"></path><path d="M1020.51 207.8L1048.31 207.8L1048.31 234.55L1020.51 234.55z" stroke="#037b0b"></path><path d="M14.87 523.42a51.39 51.39 0 1 0-2.14-102.76z" fill="#037b0b"></path><path d="M503.53 519.1a15.19 15.19 0 1 0 29.7 6.44z" stroke="#e73635"></path><path d="M1254.01 416.58a20.07 20.07 0 1 0-39.81-5.09z" fill="#d3b714"></path><path d="M324.29 328.51L369.59 328.51L369.59 373.81L324.29 373.81z" fill="#037b0b"></path><path d="M347.47 118.46a2.42 2.42 0 1 0-2.07-4.38z" fill="#d3b714"></path><path d="M1168.2 34.66 a26.52 26.52 0 1 0 53.04 0 a26.52 26.52 0 1 0 -53.04 0z" fill="#037b0b"></path><path d="M432.32 134.07 a38.32 38.32 0 1 0 76.64 0 a38.32 38.32 0 1 0 -76.64 0z" fill="#037b0b"></path><path d="M562.18 507.53a54.6 54.6 0 1 0-67.34 85.96z" fill="#d3b714"></path><path d="M1217.91 67.06 a16.82 16.82 0 1 0 33.64 0 a16.82 16.82 0 1 0 -33.64 0z" stroke="#d3b714"></path><path d="M71.83 372.64a8.72 8.72 0 1 0 4.79-16.77z" fill="#d3b714"></path><path d="M558.5 55.87 a49.36 49.36 0 1 0 98.72 0 a49.36 49.36 0 1 0 -98.72 0z" stroke="#e73635"></path><path d="M190.13 198.59L240.17 198.59L240.17 248.63L190.13 248.63z" fill="#d3b714"></path><path d="M66.07 47.2L76.45 47.2L76.45 57.58L66.07 57.58z" fill="#e73635"></path><path d="M1314.05 509.79L1333.97 509.79L1333.97 529.71L1314.05 529.71z" stroke="#e73635"></path><path d="M194.47 167.57L226.88 167.57L226.88 179.92L194.47 179.92z" fill="#d3b714"></path><path d="M272.84 490.3L274.83 490.3L274.83 509.2L272.84 509.2z" stroke="#d3b714"></path><path d="M946.04 81.32L998.65 81.32L998.65 127.83L946.04 127.83z" fill="#d3b714"></path><path d="M1114.89 302.88 a53.78 53.78 0 1 0 107.56 0 a53.78 53.78 0 1 0 -107.56 0z" stroke="#037b0b"></path><path d="M1373.61 152.66 a31.53 31.53 0 1 0 63.06 0 a31.53 31.53 0 1 0 -63.06 0z" stroke="#e73635"></path></g><defs><mask id="SvgjsMask1000"><rect width="1440" height="560" fill="#ffffff"></rect></mask></defs></svg>